<svg width="64" height="64" viewBox="0 0 64 64" fill="none" xmlns="http://www.w3.org/2000/svg">
<path fill-rule="evenodd" clip-rule="evenodd" d="M11.0372 13.3172L30.5126 4.51295C30.9847 4.31243 31.4904 4.20923 32.001 4.20923C32.5411 4.20923 33.0757 4.32473 33.5709 4.54871L52.9647 13.3161C53.6584 13.6299 54.2501 14.1454 54.6663 14.8014C55.0825 15.4575 55.3047 16.2251 55.3047 17.0106V30.7503C55.3047 39.0393 51.7047 46.4431 45.2713 51.6161L34.2506 59.613C33.5912 60.0915 32.8054 60.3476 32.001 60.3476C31.1965 60.3476 30.4107 60.0915 29.7514 59.613L18.6466 51.5519C12.2979 46.4447 8.69727 39.0412 8.69727 30.7503V17.0095C8.69762 16.2245 8.92001 15.4573 9.33621 14.8016C9.75235 14.1461 10.3439 13.6308 11.0372 13.3172ZM32.001 7.8042L12.207 16.7525V30.7481C12.207 37.9032 15.2971 44.2558 20.7215 48.6223L20.7293 48.6286L32.0009 56.8075L43.1874 48.6941L43.1951 48.6879C48.704 44.2599 51.7949 37.9064 51.7949 30.7503V16.7525L32.001 7.8042Z" fill="white"/>
<path d="M22.2229 20.3286L21.0694 20.1936C20.8613 20.1692 20.6715 20.0637 20.5417 19.9003C20.4119 19.737 20.3527 19.5291 20.3772 19.3224L20.4467 18.7384C20.4587 18.6359 20.4909 18.5368 20.5415 18.4467C20.592 18.3566 20.66 18.2772 20.7414 18.2132C20.8229 18.1492 20.9163 18.1018 21.0162 18.0737C21.1161 18.0456 21.2206 18.0373 21.3238 18.0493L23.435 18.2973C26.7535 18.685 29.1981 19.0116 31.6997 19.3443L31.8862 19.3695C34.4493 19.7117 37.0931 20.0617 40.8193 20.4981L42.9321 20.7445C43.1402 20.7689 43.33 20.8744 43.4598 21.0378C43.5896 21.2012 43.6487 21.4091 43.6242 21.6157L43.5547 22.1997C43.5427 22.3022 43.5105 22.4013 43.46 22.4914C43.4094 22.5815 43.3415 22.6609 43.26 22.7249C43.1785 22.7889 43.0852 22.8363 42.9853 22.8644C42.8853 22.8926 42.7808 22.9008 42.6777 22.8888L41.7785 22.7836V29.4629H44.2468C44.4564 29.4629 44.6574 29.5456 44.8055 29.6928C44.9537 29.8399 45.037 30.0396 45.037 30.2477V30.8364C45.037 31.0445 44.9537 31.2442 44.8055 31.3914C44.6574 31.5386 44.4564 31.6213 44.2468 31.6213H37.1357C37.032 31.6213 36.9292 31.601 36.8334 31.5615C36.7375 31.5221 36.6504 31.4643 36.577 31.3914C36.5037 31.3185 36.4455 31.232 36.4058 31.1367C36.366 31.0415 36.3456 30.9395 36.3456 30.8364V30.2477C36.3456 30.1447 36.366 30.0426 36.4058 29.9474C36.4455 29.8522 36.5037 29.7656 36.577 29.6928C36.6504 29.6199 36.7375 29.5621 36.8334 29.5226C36.9292 29.4832 37.032 29.4629 37.1357 29.4629H39.6057V22.5278C37.4304 22.2692 35.257 21.9955 33.0856 21.7068V35.0522C33.0856 35.1553 33.0651 35.2573 33.0254 35.3525C32.9857 35.4478 32.9275 35.5343 32.8541 35.6072C32.7808 35.6801 32.6937 35.7379 32.5978 35.7773C32.5019 35.8168 32.3992 35.8371 32.2954 35.8371H31.7044C31.6007 35.8371 31.4979 35.8168 31.4021 35.7773C31.3062 35.7379 31.2191 35.6801 31.1457 35.6072C31.0724 35.5343 31.0141 35.4478 30.9744 35.3525C30.9347 35.2573 30.9143 35.1553 30.9143 35.0522V21.4195C28.9011 21.1511 26.891 20.8858 24.3958 20.586V26.584H26.8641C27.0737 26.584 27.2746 26.6667 27.4228 26.8139C27.571 26.961 27.6542 27.1607 27.6542 27.3688V27.9575C27.6542 28.1657 27.571 28.3653 27.4228 28.5125C27.2746 28.6597 27.0737 28.7424 26.8641 28.7424H19.753C19.5435 28.7424 19.3425 28.6597 19.1943 28.5125C19.0461 28.3653 18.9629 28.1657 18.9629 27.9575V27.3688C18.9629 27.1607 19.0461 26.961 19.1943 26.8139C19.3425 26.6667 19.5435 26.584 19.753 26.584H22.2229V20.3286Z" fill="white" stroke="white" stroke-width="0.7"/>
<path d="M23.6536 35.2817C23.6828 35.1052 23.7732 34.9448 23.9088 34.8293C24.0444 34.7137 24.2163 34.6504 24.394 34.6506H39.6081C39.7857 34.6504 39.9576 34.7137 40.0932 34.8293C40.2288 34.9448 40.3192 35.1052 40.3484 35.2817L41.4723 42.0758C41.4902 42.184 41.4844 42.2948 41.4554 42.4006C41.4264 42.5063 41.3749 42.6044 41.3044 42.6881C41.234 42.7717 41.1463 42.8389 41.0474 42.8849C40.9485 42.9309 40.8409 42.9546 40.732 42.9545H23.27C23.1611 42.9546 23.0535 42.9309 22.9546 42.8849C22.8558 42.8389 22.768 42.7717 22.6976 42.6881C22.6271 42.6044 22.5756 42.5063 22.5466 42.4006C22.5176 42.2948 22.5118 42.184 22.5297 42.0758L23.6536 35.2817ZM25.4115 40.8785H38.5905C38.6545 40.8784 38.7179 40.8646 38.7762 40.8378C38.8345 40.8111 38.8865 40.7721 38.9286 40.7235C38.9707 40.6749 39.0021 40.6178 39.0205 40.556C39.039 40.4942 39.0441 40.4291 39.0356 40.3652L38.6055 37.1191C38.591 37.0105 38.5379 36.9109 38.456 36.8387C38.3742 36.7665 38.2691 36.7267 38.1604 36.7266H25.8416C25.7329 36.7267 25.6278 36.7665 25.546 36.8387C25.4642 36.9109 25.4111 37.0105 25.3966 37.1191L24.9664 40.3652C24.9579 40.4291 24.963 40.4942 24.9815 40.556C24.9999 40.6178 25.0313 40.6749 25.0734 40.7235C25.1156 40.7721 25.1675 40.8111 25.2259 40.8378C25.2842 40.8646 25.3475 40.8784 25.4115 40.8785Z" fill="white" stroke="white" stroke-width="0.7"/>
</svg>