<svg width="64" height="64" viewBox="0 0 64 64" fill="none" xmlns="http://www.w3.org/2000/svg">
<path fill-rule="evenodd" clip-rule="evenodd" d="M51.373 48.6873C60.254 38.3322 59.8522 22.5884 50.1675 12.7209C40.0636 2.42636 23.6819 2.42636 13.5779 12.7209C3.47402 23.0155 3.47402 39.7063 13.5779 50.0009C23.2626 59.8683 38.715 60.2777 48.8783 51.2291L55.9886 58.4736C56.6775 59.1755 57.7944 59.1755 58.4833 58.4736C59.1722 57.7717 59.1722 56.6337 58.4833 55.9318L51.373 48.6873ZM47.6728 15.2627C56.3989 24.1535 56.3989 38.5683 47.6728 47.459C38.9466 56.3498 24.7988 56.3498 16.0727 47.459C7.34657 38.5683 7.34657 24.1535 16.0727 15.2627C24.7988 6.37197 38.9466 6.37198 47.6728 15.2627Z" fill="white"/>
<ellipse cx="31.998" cy="27.5" rx="13" ry="8.5" stroke="white" stroke-width="3"/>
<path fill-rule="evenodd" clip-rule="evenodd" d="M18.6819 31.5002C17.9353 32.6982 17.498 34.05 17.498 35.5C17.498 38.5185 19.3682 41.055 21.9848 42.7658C24.6147 44.4854 28.1591 45.5 31.998 45.5C35.8369 45.5 39.3814 44.4854 42.0113 42.7658C44.6279 41.055 46.498 38.5185 46.498 35.5C46.498 34.05 46.0608 32.6982 45.3142 31.5002C44.7583 32.3897 44.0306 33.1952 43.1834 33.9009C43.3934 34.4264 43.498 34.962 43.498 35.5C43.498 37.1759 42.4581 38.8894 40.3696 40.2549C38.2944 41.6118 35.3388 42.5 31.998 42.5C28.6572 42.5 25.7017 41.6118 23.6265 40.2549C21.538 38.8894 20.498 37.1759 20.498 35.5C20.498 34.962 20.6027 34.4264 20.8127 33.9009C19.9655 33.1952 19.2378 32.3897 18.6819 31.5002Z" fill="white"/>
</svg>
