<svg width="64" height="64" viewBox="0 0 64 64" fill="none" xmlns="http://www.w3.org/2000/svg">
<rect x="16.3574" y="8.35718" width="31.2857" height="31.2857" rx="15.6429" stroke="white" stroke-width="3"/>
<path d="M38.8588 27.1243C38.8588 27.8487 38.6187 28.5314 38.1384 29.1723C37.6759 29.7992 36.9822 30.3217 36.0573 30.7396C35.1501 31.1437 34.0739 31.3805 32.8288 31.4502V33.1429H31.1212V31.4293C29.3424 31.3039 27.9105 30.8859 26.8255 30.1754C25.7404 29.4509 25.1801 28.4757 25.1445 27.2497H29.1468C29.2535 28.2528 29.9116 28.8588 31.1212 29.0678V25.0763C29.8405 24.8255 28.8088 24.5747 28.0261 24.324C27.2435 24.0732 26.5675 23.6692 25.9983 23.1119C25.4291 22.5546 25.1445 21.7953 25.1445 20.834C25.1445 19.6219 25.6959 18.6327 26.7988 17.8665C27.9194 17.1002 29.3602 16.6614 31.1212 16.5499V14.8572H32.8288V16.5499C34.5364 16.6614 35.8972 17.0654 36.9111 17.762C37.9428 18.4586 38.5209 19.4199 38.6454 20.6459H34.6165C34.5631 20.2419 34.3763 19.8936 34.0561 19.601C33.7538 19.2945 33.3446 19.0786 32.8288 18.9532V22.9029C34.1629 23.1676 35.2123 23.4253 35.9772 23.6761C36.7599 23.913 37.4358 24.31 38.005 24.8673C38.5742 25.4106 38.8588 26.163 38.8588 27.1243ZM29.04 20.6877C29.04 21.1475 29.2179 21.5236 29.5737 21.8162C29.9294 22.0948 30.4453 22.3247 31.1212 22.5058V18.8905C30.4808 18.9601 29.9739 19.1482 29.6003 19.4547C29.2268 19.7612 29.04 20.1722 29.04 20.6877ZM32.8288 29.1096C33.5047 29.0121 34.0295 28.7961 34.403 28.4618C34.7943 28.1274 34.99 27.7234 34.99 27.2497C34.99 26.7899 34.8032 26.4207 34.4297 26.1421C34.0561 25.8634 33.5225 25.6336 32.8288 25.4524V29.1096Z" fill="white"/>
<rect x="30.8574" y="14.8572" width="2.28571" height="18.2857" fill="white"/>
<path fill-rule="evenodd" clip-rule="evenodd" d="M17.3081 33.568C17.324 33.568 17.3399 33.568 17.3558 33.568H17.3081ZM16.3081 33.568V34.5694L17.3096 34.568C20.7306 34.563 24.0513 35.6987 26.7332 37.7884L27.0043 37.9996H32.3793C35.1767 37.9996 37.6882 39.1982 39.4129 41.1005L39.7105 41.4287L47.4508 41.4311C49.4563 41.4306 51.42 41.991 53.1139 43.0461C54.0885 43.6532 54.9507 44.4096 55.6708 45.2817C56.3748 46.1344 56.2937 47.4257 55.4065 48.3783C50.0689 54.1096 42.2567 57.7328 33.5387 57.7328C27.2127 57.7328 21.9095 56.3845 17.6475 54.0617L16.6298 53.5071L16.2303 54.5951C16.1398 54.8414 15.9737 55.0566 15.7521 55.2096C15.5304 55.3627 15.2646 55.4456 14.9911 55.4451H8.0335C7.67946 55.4451 7.3426 55.3062 7.0963 55.0632C6.85046 54.8207 6.71484 54.4946 6.71484 54.1574V33.568C6.71484 33.2308 6.85046 32.9047 7.0963 32.6622C7.3426 32.4192 7.67947 32.2803 8.0335 32.2803H14.9895C15.3435 32.2803 15.6803 32.4192 15.9266 32.6622C16.1725 32.9047 16.3081 33.2308 16.3081 33.568ZM17.3097 37.1434L16.3106 37.1441L16.308 50.1407L16.8346 50.5217L16.8431 50.5276C21.2055 53.549 26.8364 55.1574 33.5387 55.1574C40.7571 55.1574 47.4866 52.4164 52.3966 47.7195L52.4021 47.7141L53.506 46.625L52.3589 45.6818L52.3469 45.6726C51.0942 44.7045 49.5772 44.1311 47.9928 44.0248L47.9762 44.0237L47.4676 44.0066L41.2976 44.0037L41.579 45.2282C41.7317 45.8929 41.8133 46.5842 41.8133 47.2943C41.8133 47.9713 41.2334 48.582 40.4402 48.582H24.3186C23.5254 48.582 22.9454 47.9712 22.9454 47.2941C22.9454 46.6171 23.5253 46.0063 24.3184 46.0062L39.224 46.004L38.5177 44.4054L38.51 44.3894C37.9874 43.3121 37.1846 42.3932 36.1853 41.7259C35.1861 41.0586 34.026 40.6664 32.8243 40.5885L32.807 40.5874L32.3944 40.575H25.9924C24.8859 39.5317 23.5952 38.6965 22.1837 38.111C20.6408 37.471 18.9822 37.1422 17.3097 37.1434ZM13.6708 52.8697V34.8557H9.35215V52.8697H13.6708Z" fill="white"/>
</svg>
