<svg width="160" height="40" viewBox="0 0 160 40" fill="none" xmlns="http://www.w3.org/2000/svg">
<path fill-rule="evenodd" clip-rule="evenodd" d="M56.061 28.6224H54.1785C53.8199 28.6224 53.6407 28.4532 53.6407 28.115V12.2664C53.6407 12.0674 53.5411 11.9679 53.3419 11.9679H49.5769C49.2183 11.9679 49.0391 11.7988 49.0391 11.4605V9.93836C49.0391 9.6001 49.2183 9.43097 49.5769 9.43097H60.6626C61.0212 9.43097 61.2004 9.6001 61.2004 9.93836V11.4605C61.2004 11.7988 61.0212 11.9679 60.6626 11.9679H56.8976C56.6785 11.9679 56.569 12.0674 56.569 12.2664V28.115C56.569 28.4532 56.3996 28.6224 56.061 28.6224ZM69.744 28.6224H67.1145C65.6404 28.6224 64.4999 28.2145 63.6932 27.3987C62.8864 26.5828 62.483 25.4487 62.483 23.9961V18.0268C62.483 16.5544 62.8864 15.4152 63.6932 14.6094C64.4999 13.8035 65.6404 13.4006 67.1145 13.4006H69.744C71.1982 13.4006 72.3386 13.8035 73.1653 14.6094C73.992 15.4152 74.4053 16.5544 74.4053 18.0268V23.9961C74.4053 25.4487 73.992 26.5828 73.1653 27.3987C72.3386 28.2145 71.1982 28.6224 69.744 28.6224ZM67.5328 26.0854H69.3555C70.7898 26.0854 71.5069 25.3591 71.5069 23.9066V18.1163C71.5069 16.6638 70.7898 15.9375 69.3555 15.9375H67.5328C66.7758 15.9375 66.228 16.1116 65.8894 16.4599C65.5507 16.8081 65.3814 17.3602 65.3814 18.1163V23.9066C65.3814 24.6627 65.5507 25.2149 65.8894 25.5631C66.228 25.9113 66.7758 26.0854 67.5328 26.0854ZM85.8174 13.4006H87.9688C88.1481 13.4006 88.2726 13.4553 88.3423 13.5647C88.412 13.6742 88.3871 13.8184 88.2676 13.9975L84.0545 20.6832V20.8025L88.5963 28.0254C88.6959 28.1846 88.7108 28.3239 88.6411 28.4433C88.5714 28.5627 88.427 28.6224 88.2079 28.6224H86.2656C85.8074 28.6224 85.4688 28.4532 85.2497 28.115L81.0365 21.2204C80.8971 20.9617 80.8971 20.6931 81.0365 20.4145L84.9509 13.8781C85.1302 13.5598 85.419 13.4006 85.8174 13.4006ZM79.5425 28.6224H77.66C77.3214 28.6224 77.1521 28.4532 77.1521 28.115V8.14756C77.1521 7.8093 77.3214 7.64017 77.66 7.64017H79.5425C79.8811 7.64017 80.0505 7.8093 80.0505 8.14756V28.115C80.0505 28.4532 79.8811 28.6224 79.5425 28.6224ZM100.875 28.6224H94.4207C92.9466 28.6224 91.8062 28.2145 90.9994 27.3987C90.1926 26.5828 89.7892 25.4487 89.7892 23.9961V18.0268C89.7892 16.5544 90.1926 15.4152 90.9994 14.6094C91.8062 13.8035 92.9466 13.4006 94.4207 13.4006H96.8709C98.345 13.4006 99.4904 13.8035 100.307 14.6094C101.124 15.4152 101.532 16.5544 101.532 18.0268V21.8173C101.532 22.1755 101.353 22.3546 100.994 22.3546H92.9864C92.7673 22.3546 92.6578 22.4541 92.6578 22.653V23.9364C92.6578 25.389 93.3848 26.1152 94.839 26.1152H100.875C101.233 26.1152 101.413 26.2943 101.413 26.6525V28.1448C101.413 28.4632 101.233 28.6224 100.875 28.6224ZM92.9864 20.325H98.3351C98.5343 20.325 98.6339 20.2255 98.6339 20.0265V18.1163C98.6339 17.3602 98.4645 16.8081 98.1259 16.4599C97.7872 16.1116 97.2394 15.9375 96.4825 15.9375H94.839C94.0821 15.9375 93.5343 16.1116 93.1956 16.4599C92.857 16.8081 92.6876 17.3602 92.6876 18.1163V20.0265C92.6876 20.2255 92.7872 20.325 92.9864 20.325ZM106.52 28.6224H104.638C104.299 28.6224 104.13 28.4532 104.13 28.115V13.908C104.13 13.5697 104.299 13.4006 104.638 13.4006H106.52C106.859 13.4006 107.028 13.5697 107.028 13.908V14.9824H107.148C107.626 13.9279 108.632 13.4006 110.165 13.4006H111.48C112.934 13.4006 114.05 13.7985 114.827 14.5944C115.604 15.3904 115.992 16.5345 115.992 18.0268V28.115C115.992 28.4532 115.813 28.6224 115.454 28.6224H113.572C113.233 28.6224 113.064 28.4532 113.064 28.115V18.1462C113.064 16.6737 112.337 15.9375 110.883 15.9375H109.478C107.845 15.9375 107.028 16.7832 107.028 18.4745V28.115C107.028 28.4532 106.859 28.6224 106.52 28.6224ZM121.279 32.8307H119.396C119.058 32.8307 118.888 32.6616 118.888 32.3233V13.908C118.888 13.5697 119.058 13.4006 119.396 13.4006H121.279C121.617 13.4006 121.787 13.5697 121.787 13.908V14.9824H121.906C122.384 13.9279 123.39 13.4006 124.924 13.4006H126.448C127.882 13.4006 128.983 13.7985 129.75 14.5944C130.517 15.3904 130.9 16.5345 130.9 18.0268V23.9961C130.9 25.4686 130.517 26.6077 129.75 27.4136C128.983 28.2194 127.882 28.6224 126.448 28.6224H124.924C123.39 28.6224 122.384 28.0951 121.906 27.0405H121.787V32.3233C121.787 32.6616 121.617 32.8307 121.279 32.8307ZM124.237 26.0854H125.821C127.255 26.0854 127.972 25.3492 127.972 23.8767V18.1462C127.972 16.6737 127.255 15.9375 125.821 15.9375H124.237C122.603 15.9375 121.787 16.7832 121.787 18.4745V23.5484C121.787 25.2398 122.603 26.0854 124.237 26.0854ZM139.175 28.6224H138.01C136.535 28.6224 135.395 28.2145 134.588 27.3987C133.781 26.5828 133.378 25.4487 133.378 23.9961V18.0268C133.378 16.5544 133.781 15.4152 134.588 14.6094C135.395 13.8035 136.535 13.4006 138.01 13.4006H144.703C145.061 13.4006 145.241 13.5697 145.241 13.908V28.115C145.241 28.4532 145.061 28.6224 144.703 28.6224H142.82C142.482 28.6224 142.312 28.4532 142.312 28.115V27.0405H142.193C141.715 28.0951 140.709 28.6224 139.175 28.6224ZM142.312 23.5484V16.236C142.312 16.037 142.203 15.9375 141.984 15.9375H138.428C136.994 15.9375 136.276 16.6737 136.276 18.1462V23.8767C136.276 25.3492 136.994 26.0854 138.428 26.0854H139.862C141.496 26.0854 142.312 25.2398 142.312 23.5484ZM153.963 28.6224H152.44C151.005 28.6224 149.905 28.2194 149.138 27.4136C148.371 26.6077 147.987 25.4686 147.987 23.9961V18.0268C147.987 16.5345 148.371 15.3904 149.138 14.5944C149.905 13.7985 151.005 13.4006 152.44 13.4006H153.963C155.497 13.4006 156.493 13.9279 156.951 14.9824H157.071V8.14756C157.071 7.8093 157.24 7.64017 157.579 7.64017H159.491C159.83 7.64017 159.999 7.8093 159.999 8.14756V28.115C159.999 28.4532 159.83 28.6224 159.491 28.6224H157.579C157.24 28.6224 157.071 28.4532 157.071 28.115V27.0405H156.951C156.493 28.0951 155.497 28.6224 153.963 28.6224ZM157.071 23.5484V18.4745C157.071 16.7832 156.254 15.9375 154.621 15.9375H153.037C151.603 15.9375 150.886 16.6737 150.886 18.1462V23.8767C150.886 25.3492 151.603 26.0854 153.037 26.0854H154.621C156.254 26.0854 157.071 25.2398 157.071 23.5484Z" fill="white"/>
<path fill-rule="evenodd" clip-rule="evenodd" d="M19.8714 40C30.8461 40 39.7428 31.0457 39.7428 20C39.7428 8.9543 30.8461 0 19.8714 0C13.0775 0 7.0799 3.43154 3.49632 8.66647L19.8667 8.66647H19.8714C26.0904 8.66647 31.1319 13.7406 31.1319 19.9998C31.1319 26.259 26.0904 31.3331 19.8714 31.3331C13.6524 31.3331 8.61094 26.259 8.61094 19.9998C8.61094 17.654 9.31906 15.4746 10.5319 13.6665L1.01703 13.6665C0.357302 15.6568 0 17.7864 0 20C0 31.0457 8.89673 40 19.8714 40ZM14.2509 20.0096L19.8714 25.6665L25.4919 20.0096L19.8714 14.3528L14.2509 20.0096Z" fill="white"/>
</svg>
